<?xml version="1.0" encoding="UTF-8"?>
<svg xmlns="http://www.w3.org/2000/svg" width="2300" height="257" viewBox="0 0 2300 257" role="img" aria-label="图5 具有先决依赖的多步取证动作规划示意图">
<defs>
<marker id="arrow" viewBox="0 0 10 10" refX="9" refY="5" markerWidth="8" markerHeight="8" orient="auto-start-reverse">
<path d="M 0 0 L 10 5 L 0 10 z" fill="#000"/>
</marker>
</defs>
<rect width="100%" height="100%" fill="#fff"/>
<text x="1150.0" y="28" text-anchor="middle" font-family="SimSun, Songti SC, serif" font-size="20">图5 具有先决依赖的多步取证动作规划示意图</text>
<line x1="430" y1="151.0" x2="520" y2="151.0" stroke="#000" stroke-width="2" marker-end="url(#arrow)"/>
<text x="483.0" y="143.0" font-family="SimSun, Songti SC, serif" font-size="16">多步路径</text>
<line x1="880" y1="151.0" x2="970" y2="151.0" stroke="#000" stroke-width="2" marker-end="url(#arrow)"/>
<text x="933.0" y="143.0" font-family="SimSun, Songti SC, serif" font-size="16">解锁</text>
<line x1="1330" y1="151.0" x2="1420" y2="151.0" stroke="#000" stroke-width="2" marker-end="url(#arrow)"/>
<text x="1383.0" y="143.0" font-family="SimSun, Songti SC, serif" font-size="16">达标</text>
<line x1="430" y1="151.0" x2="1870" y2="151.0" stroke="#000" stroke-width="2" marker-end="url(#arrow)"/>
<text x="1158.0" y="143.0" font-family="SimSun, Songti SC, serif" font-size="16">短视路径</text>
<rect x="70" y="115" width="360" height="72" rx="0" fill="#fff" stroke="#000" stroke-width="2"/>
<text x="250.0" y="151.0" text-anchor="middle" dominant-baseline="middle" font-family="SimSun, Songti SC, serif" font-size="18">当前证据缺口状态</text>
<rect x="520" y="115" width="360" height="72" rx="0" fill="#fff" stroke="#000" stroke-width="2"/>
<text x="700.0" y="151.0" text-anchor="middle" dominant-baseline="middle" font-family="SimSun, Songti SC, serif" font-size="18">低即时收益解锁动作</text>
<rect x="970" y="115" width="360" height="72" rx="0" fill="#fff" stroke="#000" stroke-width="2"/>
<text x="1150.0" y="151.0" text-anchor="middle" dominant-baseline="middle" font-family="SimSun, Songti SC, serif" font-size="18">后续关键取证动作</text>
<rect x="1420" y="115" width="360" height="72" rx="0" fill="#fff" stroke="#000" stroke-width="2"/>
<text x="1600.0" y="151.0" text-anchor="middle" dominant-baseline="middle" font-family="SimSun, Songti SC, serif" font-size="18">达到目标归因粒度</text>
<rect x="1870" y="115" width="360" height="72" rx="0" fill="#fff" stroke="#000" stroke-width="2"/>
<text x="2050.0" y="151.0" text-anchor="middle" dominant-baseline="middle" font-family="SimSun, Songti SC, serif" font-size="18">高即时收益诱饵动作</text>
</svg>
